# xmcd
#
# Track frame offsets:
#	150
#	17146
#	33566
#	53166
#	73830
#	90694
#	110316
#	131213
#	147551
#	165276
#	181373
#	199819
#
# Disc length: 2934 seconds
# Revision: 1
# Processed by: cddbd v1.5.2PL0 Copyright (c) Steve Scherf et al.
# Submitted via: dBpowerAMP V12.0
#
DISCID=ad0b740c
DTITLE=Carter And Carter - To The Moon And Back 
DYEAR=2011
DGENRE=Country
TTITLE0=Dance In The Rain
TTITLE1=Little Patch Of Heaven
TTITLE2=To The Moon And Back 
TTITLE3=Keeps Getting Better
TTITLE4=Lets Choose Love
TTITLE5=I Promise You
TTITLE6=Family Was Everything
TTITLE7=When A Heart Breaks
TTITLE8=He Found Her At Christmas
TTITLE9=A Good Life
TTITLE10=Second Time Around
TTITLE11=Please Come Home
EXTD=
EXTT0=
EXTT1=
EXTT2=
EXTT3=
EXTT4=
EXTT5=
EXTT6=
EXTT7=
EXTT8=
EXTT9=
EXTT10=
EXTT11=
PLAYORDER=
